<svg id="Layer_1" xmlns="http://www.w3.org/2000/svg" viewBox="0 0 512 512"><defs><style>.st0{fill:#0073aa}.st1{fill:#fff}.st2{fill:#f0f6fc}.st3{fill:#0a0}</style></defs><path class="st2" d="M0 0h512v512H0z"/><path class="st0" d="M54.5 331.3h10.8v42.5H91v9.3H54.5v-51.8zM120.4 384.6c-7.4 0-13.1-2-17-6-5.3-4.9-7.9-12.1-7.9-21.4s2.6-16.6 7.9-21.4c3.9-4 9.6-6 17-6s13.1 2 17 6c5.2 4.8 7.8 11.9 7.8 21.4s-2.6 16.4-7.8 21.4c-3.9 4-9.6 6-17 6zm10.2-13.9c2.5-3.2 3.8-7.7 3.8-13.5s-1.3-10.3-3.8-13.5c-2.5-3.2-5.9-4.8-10.2-4.8s-7.7 1.6-10.3 4.7c-2.6 3.2-3.8 7.7-3.8 13.5s1.3 10.3 3.8 13.5c2.6 3.2 6 4.7 10.3 4.7s7.7-1.6 10.2-4.7zM189 379.3c-3.9 3.5-8.8 5.3-14.8 5.3s-13.3-2.4-17.6-7.2c-4.3-4.8-6.4-11.4-6.4-19.8s2.4-16 7.3-20.9c4.2-4.3 9.6-6.4 16.1-6.4s15.1 2.9 19.1 8.6c2.2 3.2 3.4 6.4 3.6 9.7h-10.8c-.7-2.5-1.6-4.4-2.7-5.6-2-2.2-4.9-3.4-8.8-3.4s-7 1.6-9.3 4.8c-2.3 3.2-3.4 7.7-3.4 13.5s1.2 10.2 3.6 13.1c2.4 2.9 5.5 4.3 9.2 4.3s6.7-1.2 8.7-3.7c1.1-1.3 2-3.3 2.7-6h10.7c-.9 5.6-3.3 10.2-7.2 13.8zM232.8 372.5h-19.1l-3.6 10.7h-11.3l18.5-51.8h12.2l18.4 51.8h-11.7l-3.3-10.7zm-3-8.9l-6.5-20.4-6.7 20.4h13.1zM254.5 331.3h10.8v42.5H291v9.3h-36.5v-51.8zM300 383.1l20.1-53.4h8.3l-20.1 53.4H300z"/><g><path class="st0" d="M333.4 331.3H345l11.2 39.3 11.4-39.3h11.2l-17.7 51.8h-10.2l-17.5-51.8zM418.9 379.3c-3.9 3.5-8.8 5.3-14.8 5.3s-13.3-2.4-17.6-7.2c-4.3-4.8-6.4-11.4-6.4-19.8s2.4-16 7.3-20.9c4.2-4.3 9.6-6.4 16.1-6.4s15.1 2.9 19.1 8.6c2.2 3.2 3.4 6.4 3.6 9.7h-10.8c-.7-2.5-1.6-4.4-2.7-5.6-2-2.2-4.9-3.4-8.8-3.4s-7 1.6-9.3 4.8c-2.3 3.2-3.4 7.7-3.4 13.5s1.2 10.2 3.6 13.1c2.4 2.9 5.5 4.3 9.2 4.3s6.7-1.2 8.7-3.7c1.1-1.3 2-3.3 2.7-6h10.7c-.9 5.6-3.3 10.2-7.2 13.8zM454.1 375.7c2.6 0 4.6-.3 6.2-.8 3-1.1 4.5-3.1 4.5-6s-.8-3-2.2-4c-1.5-.9-3.9-1.7-7.1-2.4l-5.5-1.2c-5.4-1.2-9.1-2.5-11.2-4-3.5-2.4-5.2-6.1-5.2-11.2s1.7-8.5 5.1-11.6c3.4-3.1 8.3-4.6 14.9-4.6s10.1 1.4 14 4.3c3.9 2.9 5.9 7.1 6.1 12.6h-10.4c-.2-3.1-1.5-5.3-4.1-6.6-1.7-.9-3.8-1.3-6.3-1.3s-5 .6-6.7 1.7-2.5 2.7-2.5 4.7.8 3.2 2.5 4.1c1.1.6 3.3 1.3 6.8 2.1l8.9 2.1c3.9.9 6.9 2.2 8.9 3.8 3.1 2.4 4.6 6 4.6 10.6s-1.8 8.7-5.4 11.8-8.7 4.7-15.3 4.7-12.1-1.5-15.9-4.6c-3.9-3.1-5.8-7.3-5.8-12.7h10.3c.3 2.4 1 4.1 1.9 5.3 1.8 2.1 4.8 3.2 9 3.2z"/></g><g><path class="st0" d="M335.9 295c45.9 0 83-37.2 83-83s-37.2-83-83-83H169.8c-45.9 0-83 37.2-83 83s37.2 83 83 83h166.1z"/><circle class="st1" cx="169.3" cy="211.9" r="66.4"/></g><path class="st0" d="M-133 264.3h38.5v47.3H-133z"/><path class="st3" d="M-133 331.7h38.5V379H-133z"/></svg>